<?xml version="1.0" encoding="UTF-8" standalone="no"?>
<!-- Created with Inkscape (http://www.inkscape.org/) -->

<svg
   xmlns:dc="http://purl.org/dc/elements/1.1/"
   xmlns:cc="http://creativecommons.org/ns#"
   xmlns:rdf="http://www.w3.org/1999/02/22-rdf-syntax-ns#"
   xmlns:svg="http://www.w3.org/2000/svg"
   xmlns="http://www.w3.org/2000/svg"
   xmlns:sodipodi="http://sodipodi.sourceforge.net/DTD/sodipodi-0.dtd"
   xmlns:inkscape="http://www.inkscape.org/namespaces/inkscape"
   version="1.1"
   id="svg2"
   xml:space="preserve"
   width="502.84305"
   height="282.54346"
   viewBox="0 0 502.84304 282.54346"
   sodipodi:docname="logo_dark_variant.svg"
   inkscape:version="0.92.4 (5da689c313, 2019-01-14)"><metadata
     id="metadata8"><rdf:RDF><cc:Work
         rdf:about=""><dc:format>image/svg+xml</dc:format><dc:type
           rdf:resource="http://purl.org/dc/dcmitype/StillImage" /><dc:title></dc:title></cc:Work></rdf:RDF></metadata><defs
     id="defs6"><clipPath
       clipPathUnits="userSpaceOnUse"
       id="clipPath42"><path
         d="M 0,719.964 H 1279.436 V 0 H 0 Z"
         id="path40"
         inkscape:connector-curvature="0" /></clipPath><clipPath
       clipPathUnits="userSpaceOnUse"
       id="clipPath70"><path
         d="M 0,719.964 H 1279.436 V 0 H 0 Z"
         id="path68"
         inkscape:connector-curvature="0" /></clipPath><clipPath
       clipPathUnits="userSpaceOnUse"
       id="clipPath100"><path
         d="M 0,719.964 H 1279.436 V 0 H 0 Z"
         id="path98"
         inkscape:connector-curvature="0" /></clipPath><clipPath
       clipPathUnits="userSpaceOnUse"
       id="clipPath120"><path
         d="M 0,719.964 H 1279.436 V 0 H 0 Z"
         id="path118"
         inkscape:connector-curvature="0" /></clipPath></defs><sodipodi:namedview
     pagecolor="#ffffff"
     bordercolor="#666666"
     borderopacity="1"
     objecttolerance="10"
     gridtolerance="10"
     guidetolerance="10"
     inkscape:pageopacity="0"
     inkscape:pageshadow="2"
     inkscape:window-width="1296"
     inkscape:window-height="704"
     id="namedview4"
     showgrid="false"
     fit-margin-top="0"
     fit-margin-left="0"
     fit-margin-right="0"
     fit-margin-bottom="0"
     inkscape:zoom="0.24584562"
     inkscape:cx="-348.02553"
     inkscape:cy="157.63527"
     inkscape:window-x="70"
     inkscape:window-y="27"
     inkscape:window-maximized="1"
     inkscape:current-layer="g10" /><g
     id="g10"
     inkscape:groupmode="layer"
     inkscape:label="Manual de marca USACAR_OK"
     transform="matrix(1.3333333,0,0,-1.3333333,-1851.8005,604.88416)"><g
       aria-label="USACAR"
       transform="scale(1,-1)"
       style="font-variant:normal;font-weight:normal;font-stretch:normal;font-size:88.3214035px;font-family:'Gotham Bold';-inkscape-font-specification:Gotham-Bold;writing-mode:lr-tb;fill:#252525;fill-opacity:1;fill-rule:nonzero;stroke:none"
       id="text108"><path
         d="m 1415.6118,-284.58858 c 16.6044,0 27.1147,-9.18543 27.1147,-27.90957 v -34.88695 h -13.6015 v 35.41688 c 0,9.80368 -5.0343,14.838 -13.3366,14.838 -8.3022,0 -13.3365,-5.21097 -13.3365,-15.27961 v -34.97527 h -13.6015 v 35.32856 c 0,18.19421 10.157,27.46796 26.7614,27.46796 z"
         id="path974"
         inkscape:connector-curvature="0" /><path
         d="m 1478.585,-284.67691 c 13.3365,0 22.6986,-6.88907 22.6986,-19.16574 v -0.17664 c 0,-10.77521 -7.0657,-15.27961 -19.6074,-18.5475 -10.6869,-2.73796 -13.3365,-4.06278 -13.3365,-8.12557 v -0.17664 c 0,-3.00293 2.738,-5.38761 7.9489,-5.38761 5.211,0 10.5986,2.29636 16.0745,6.09418 l 7.0657,-10.24528 c -6.2708,-5.03432 -13.9548,-7.86061 -22.9635,-7.86061 -12.63,0 -21.6388,7.419 -21.6388,18.63582 v 0.17664 c 0,12.27668 8.0373,15.72121 20.4906,18.90078 10.3336,2.64965 12.4533,4.41607 12.4533,7.86061 v 0.17664 c 0,3.62118 -3.3562,5.82921 -8.9205,5.82921 -7.0657,0 -12.8949,-2.9146 -18.4591,-7.50732 l -8.0373,9.62704 c 7.419,6.6241 16.8694,9.89199 26.2315,9.89199 z"
         id="path976"
         inkscape:connector-curvature="0" /><path
         d="m 1506.4945,-285.56012 h 13.8664 l 5.6526,-13.86646 h 26.1431 l 5.6526,13.86646 h 14.2198 l -26.4965,-62.26659 h -12.5416 z m 24.3767,-25.87817 8.2139,-20.04896 8.2139,20.04896 z"
         id="path978"
         inkscape:connector-curvature="0" /><path
         d="m 1606.5626,-284.50026 c 11.9234,0 18.9891,-4.23943 25.3483,-11.04018 l -8.6555,-8.74382 c -4.8577,4.41607 -9.1855,7.24236 -16.2512,7.24236 -10.5985,0 -17.9292,-8.83214 -17.9292,-19.43071 v -0.17664 c 0,-10.59857 7.5073,-19.25407 17.9292,-19.25407 6.1825,0 11.0402,2.64964 15.8096,6.97739 l 8.6554,-9.98032 c -5.7408,-5.65257 -12.7182,-9.53871 -24.3767,-9.53871 -18.9891,0 -32.2373,14.39639 -32.2373,31.97235 v 0.17664 c 0,17.7526 13.5132,31.79571 31.7074,31.79571 z"
         id="path980"
         inkscape:connector-curvature="0" /><path
         d="m 1637.4751,-285.56012 h 13.8664 l 5.6526,-13.86646 h 26.1431 l 5.6526,13.86646 h 14.2197 l -26.4964,-62.26659 h -12.5416 z m 24.3767,-25.87817 8.2139,-20.04896 8.2138,20.04896 z"
         id="path982"
         inkscape:connector-curvature="0" /><path
         d="m 1712.5483,-285.56012 h 13.6015 v -19.78399 h 10.6869 l 13.2482,19.78399 h 15.8978 l -15.1029,-22.08035 c 7.8606,-2.91461 13.2482,-9.18543 13.2482,-19.16575 v -0.17664 c 0,-5.82921 -1.8548,-10.68689 -5.2993,-14.13142 -4.0628,-4.06279 -10.157,-6.27082 -18.0176,-6.27082 h -28.2628 z m 13.6015,-31.7957 v -17.75261 h 13.5131 c 6.6241,0 10.6869,3.00293 10.6869,8.83214 v 0.17665 c 0,5.21096 -3.7978,8.74382 -10.4219,8.74382 z"
         id="path984"
         inkscape:connector-curvature="0" /></g><g
       aria-label="IMPORT CENTER"
       transform="scale(1,-1)"
       style="font-variant:normal;font-weight:normal;font-stretch:normal;font-size:31.1154995px;font-family:'Agency FB';-inkscape-font-specification:AgencyFB-Reg;writing-mode:lr-tb;fill:#252525;fill-opacity:1;fill-rule:nonzero;stroke:none"
       id="text112"><path
         d="m 1443.4691,-241.75554 h -2.1119 v -23.77722 h 2.1119 z"
         id="path949"
         inkscape:connector-curvature="0" /><path
         d="m 1468.5218,-241.75554 h -1.9903 v -15.05638 q 0,-0.31905 0.2127,-1.86875 l -3.8895,14.69174 h -0.4254 l -3.8894,-14.69174 q 0.2127,1.56489 0.2127,1.86875 v 15.05638 h -1.9903 v -23.77722 h 1.9599 l 3.8591,15.46659 q 0.03,0.12154 0.061,0.68369 0,-0.2279 0.061,-0.68369 l 3.8591,-15.46659 h 1.9599 z"
         id="path951"
         inkscape:connector-curvature="0" /><path
         d="m 1491.0744,-252.89209 q 0,0.74446 -0.4862,1.23064 -0.471,0.47099 -1.2155,0.47099 h -5.6062 v 9.43492 h -2.1119 v -23.77722 h 7.7181 q 0.7445,0 1.2155,0.47098 0.4862,0.47099 0.4862,1.21545 z m -2.1119,-0.18232 v -10.5896 h -5.196 v 10.5896 z"
         id="path953"
         inkscape:connector-curvature="0" /><path
         d="m 1513.7893,-243.44197 q 0,0.74446 -0.4862,1.21544 -0.4709,0.47099 -1.2154,0.47099 h -6.6546 q -0.7445,0 -1.2154,-0.47099 -0.471,-0.47098 -0.471,-1.21544 v -20.40436 q 0,-0.74446 0.471,-1.21545 0.4709,-0.47098 1.2154,-0.47098 h 6.6546 q 0.7445,0 1.2154,0.47098 0.4862,0.47099 0.4862,1.21545 z m -2.1118,-0.18232 v -20.03972 h -5.819 v 20.03972 z"
         id="path955"
         inkscape:connector-curvature="0" /><path
         d="m 1537.0463,-241.75554 h -2.2182 l -4.4212,-12.73183 0.2887,-0.42541 h 3.7679 v -8.75123 h -5.424 v 21.90847 h -2.1118 v -23.77722 h 7.9612 q 0.7445,0 1.2154,0.47098 0.471,0.47099 0.471,1.21545 v 9.02471 q 0,1.71682 -2.3093,1.71682 -0.2279,0 -0.6685,-0.0152 -0.4406,-0.0304 -0.6381,-0.0304 2.051,5.68223 4.0869,11.39484 z"
         id="path957"
         inkscape:connector-curvature="0" /><path
         d="m 1557.7378,-263.66401 h -3.6768 v 21.90847 h -2.1118 v -21.90847 h -3.7071 v -1.86875 h 9.4957 z"
         id="path959"
         inkscape:connector-curvature="0" /><path
         d="m 1594.5153,-243.44197 q 0,0.74446 -0.4862,1.21544 -0.4861,0.47099 -1.2306,0.47099 h -6.1228 q -0.7445,0 -1.2155,-0.47099 -0.471,-0.47098 -0.471,-1.21544 v -20.40436 q 0,-0.74446 0.471,-1.21545 0.471,-0.47098 1.2155,-0.47098 h 6.1228 q 0.7445,0 1.2306,0.47098 0.4862,0.47099 0.4862,1.21545 v 5.5303 h -2.127 v -5.34798 h -5.2872 v 20.03972 h 5.2872 v -5.84935 h 2.127 z"
         id="path961"
         inkscape:connector-curvature="0" /><path
         d="m 1615.3572,-241.75554 h -7.8093 v -23.77722 h 7.7181 v 1.86875 h -5.6062 v 8.87278 h 5.1049 v 1.89914 h -5.1049 v 9.2678 h 5.6974 z"
         id="path963"
         inkscape:connector-curvature="0" /><path
         d="m 1637.7905,-241.75554 h -1.4585 l -6.3508,-17.48727 v 17.48727 h -1.9903 v -23.77722 h 1.5801 l 6.2292,17.18341 v -17.18341 h 1.9903 z"
         id="path965"
         inkscape:connector-curvature="0" /><path
         d="m 1659.112,-263.66401 h -3.6767 v 21.90847 h -2.1118 v -21.90847 h -3.7072 v -1.86875 h 9.4957 z"
         id="path967"
         inkscape:connector-curvature="0" /><path
         d="m 1678.7395,-241.75554 h -7.8092 v -23.77722 h 7.7181 v 1.86875 h -5.6063 v 8.87278 h 5.1049 v 1.89914 h -5.1049 v 9.2678 h 5.6974 z"
         id="path969"
         inkscape:connector-curvature="0" /><path
         d="m 1701.4918,-241.75554 h -2.2182 l -4.4212,-12.73183 0.2886,-0.42541 h 3.7679 v -8.75123 h -5.4239 v 21.90847 h -2.1119 v -23.77722 h 7.9612 q 0.7445,0 1.2155,0.47098 0.471,0.47099 0.471,1.21545 v 9.02471 q 0,1.71682 -2.3094,1.71682 -0.2279,0 -0.6685,-0.0152 -0.4406,-0.0304 -0.6381,-0.0304 2.0511,5.68223 4.087,11.39484 z"
         id="path971"
         inkscape:connector-curvature="0" /></g><g
       id="g114"
       transform="translate(671.15292,-21.354866)"><g
         id="g116"
         clip-path="url(#clipPath120)"><g
           id="g122"
           transform="translate(827.5051,438.7214)"><path
             d="m 0,0 h 18.138 c 0,0 -2.376,-29.907 26.472,-24.266 12.109,3.588 17.478,11.484 27.207,28.188 14.747,22.141 23.906,31.142 48.041,32.109 V 19.364 C 114.751,19.506 105,19.115 95.593,6.665 85.775,-4.615 79.458,-18.467 66.425,-31.619 c 0,0 -26.717,-24.756 -52.699,-3.432 0,0 -14.952,8.824 -13.726,35.051"
             style="fill:#ea0d07;fill-opacity:1;fill-rule:nonzero;stroke:none"
             id="path124"
             inkscape:connector-curvature="0" /></g><path
           d="m 845.643,444.219 h -18.138 v 30.799 h 18.138 z"
           style="fill:#252525;fill-opacity:1;fill-rule:nonzero;stroke:none"
           id="path126"
           inkscape:connector-curvature="0" /><g
           id="g128"
           transform="translate(902.9988,457.8341)"><path
             d="M 0,0 -18.138,-27.201 V 17.118 H 0 Z"
             style="fill:#252525;fill-opacity:1;fill-rule:nonzero;stroke:none"
             id="path130"
             inkscape:connector-curvature="0" /></g><g
           id="g132"
           transform="translate(922.978,435.9732)"><path
             d="m 0,0 c -2.373,-3.606 -11.672,-16.229 -11.672,-16.229 10.144,-28.66 39.619,-24.409 39.619,-24.409 19.409,2.294 28.823,16.996 31.558,25.775 H 43.343 C 26.127,-36.247 -0.895,-21.482 0,0"
             style="fill:#252525;fill-opacity:1;fill-rule:nonzero;stroke:none"
             id="path134"
             inkscape:connector-curvature="0" /></g><g
           id="g136"
           transform="translate(953.4913,474.8318)"><path
             d="m 0,0 v -17.783 c 0,0 6.786,-1.866 12.015,-8.365 H 29.79 C 26.573,-18.28 17.954,-5.499 0,0"
             style="fill:#252525;fill-opacity:1;fill-rule:nonzero;stroke:none"
             id="path138"
             inkscape:connector-curvature="0" /></g></g></g></g></svg>